# xmcd
#
# Track frame offsets:
#	150
#	22801
#	35938
#	46747
#	64905
#	74332
#	87562
#	100449
#	116861
#	131034
#	144362
#	156676
#	167060
#	180165
#	190339
#	199870
#
# Disc length: 2911 seconds
#
# Revision: 1
# Processed by: cddbd v1.5.2PL0 Copyright (c) Steve Scherf et al.
# Submitted via: audiograbber 1.83.01
#
DISCID=ee0b5d10
DTITLE=Verschiedene - Classic Country [CD 4/4)
DYEAR=2007
DGENRE=Country
TTITLE0=Olivia Neton-John - Take me Home Country Roads
TTITLE1=Loretta Lyn - Let your Love Flow (Live)
TTITLE2=Leroy van Dyke - Walk in by
TTITLE3=Bobby Goldberg - Honey (new Recording)
TTITLE4=Frank Ifield - I Remember You
TTITLE5=Marty Robbins - Devil Woman (new Recording)
TTITLE6=Johnny Cash - San Quentin (Live)
TTITLE7=Rex Allen - Memory Train
TTITLE8=George Jones - A Good Year for The Roses
TTITLE9=Tennessee - Train to Santa Fé
TTITLE10=Patsy Cline - Crazy
TTITLE11=Mel Mc Daniel - Lousianna Saturday Night
TTITLE12=Hank Williams - Jambalaya
TTITLE13=Porter Waggoner - Green Green Grass of Home
TTITLE14=Jim Reeves - Billy Bayou
TTITLE15=Kris Kristofferson - A Moment Of Forever
EXTD=
EXTT0=
EXTT1=
EXTT2=
EXTT3=
EXTT4=
EXTT5=
EXTT6=
EXTT7=
EXTT8=
EXTT9=
EXTT10=
EXTT11=
EXTT12=
EXTT13=
EXTT14=
EXTT15=
PLAYORDER=
